<svg width="20" height="20" viewBox="0 0 20 20" fill="none" xmlns="http://www.w3.org/2000/svg">
<path d="M0.43955 19.9942C0.37547 19.9963 0.311745 19.9839 0.253133 19.9579C0.194521 19.9319 0.142537 19.893 0.101061 19.8442C0.0595855 19.7953 0.0296906 19.7376 0.0136084 19.6756C-0.00247377 19.6135 -0.00432777 19.5486 0.008185 19.4857L0.776643 15.3949C0.792124 15.3096 0.832939 15.231 0.893768 15.1692L15.4345 0.625663C15.8371 0.224957 16.382 0 16.95 0C17.518 0 18.0629 0.224957 18.4655 0.625663L19.371 1.5341C19.5704 1.73264 19.7286 1.96859 19.8365 2.22841C19.9444 2.48823 20 2.76681 20 3.04816C20 3.32951 19.9444 3.60809 19.8365 3.86791C19.7286 4.12774 19.5704 4.36369 19.371 4.56222L4.83033 19.1086C4.76895 19.1684 4.69155 19.2091 4.6075 19.2258L0.516681 19.9942C0.491049 19.9971 0.465182 19.9971 0.43955 19.9942ZM1.58224 15.6863L0.973756 19.0287L4.31898 18.4087L18.7683 3.9566C18.8878 3.83744 18.9827 3.69586 19.0474 3.53997C19.1121 3.38408 19.1454 3.21695 19.1454 3.04816C19.1454 2.87937 19.1121 2.71224 19.0474 2.55636C18.9827 2.40047 18.8878 2.25888 18.7683 2.13972L17.8627 1.23129C17.6204 0.991761 17.2935 0.857424 16.9528 0.857424C16.6121 0.857424 16.2852 0.991761 16.043 1.23129L1.58224 15.6863Z" fill="black"/>
<path d="M17.8483 5.91056C17.7919 5.91098 17.7361 5.90007 17.6841 5.87848C17.6321 5.85689 17.5849 5.82505 17.5454 5.78486L14.2145 2.45392C14.1724 2.41469 14.1386 2.36739 14.1152 2.31482C14.0918 2.26226 14.0792 2.20552 14.0782 2.14798C14.0772 2.09045 14.0878 2.03329 14.1093 1.97994C14.1309 1.92658 14.1629 1.87811 14.2036 1.83742C14.2443 1.79673 14.2928 1.76465 14.3461 1.7431C14.3995 1.72155 14.4567 1.71097 14.5142 1.71198C14.5717 1.713 14.6285 1.72559 14.681 1.74901C14.7336 1.77243 14.7809 1.8062 14.8201 1.8483L18.1511 5.17923C18.1911 5.21883 18.223 5.26598 18.2447 5.31796C18.2664 5.36994 18.2776 5.42571 18.2776 5.48205C18.2776 5.53838 18.2664 5.59416 18.2447 5.64614C18.223 5.69812 18.1911 5.74527 18.1511 5.78486C18.1118 5.82531 18.0647 5.85733 18.0126 5.87894C17.9606 5.90056 17.9046 5.91131 17.8483 5.91056Z" fill="black"/>
<path d="M16.6081 7.13893C16.4949 7.13959 16.3861 7.09543 16.3053 7.01609L12.9744 3.71087C12.8987 3.62964 12.8575 3.5222 12.8594 3.41118C12.8614 3.30017 12.9064 3.19425 12.9849 3.11574C13.0634 3.03723 13.1693 2.99226 13.2803 2.9903C13.3913 2.98834 13.4988 3.02955 13.58 3.10524L16.9109 6.41904C16.967 6.47946 17.0045 6.55477 17.0189 6.63595C17.0332 6.71713 17.0238 6.80073 16.9919 6.87672C16.9599 6.95271 16.9067 7.01786 16.8386 7.06437C16.7706 7.11088 16.6905 7.13677 16.6081 7.13893Z" fill="black"/>
<path d="M4.52777 19.2312C4.41457 19.2319 4.3057 19.1877 4.22495 19.1084L0.894018 15.7774C0.813329 15.6971 0.767847 15.5881 0.767579 15.4742C0.767311 15.3604 0.812279 15.2511 0.89259 15.1704C0.972901 15.0897 1.08198 15.0442 1.19582 15.0439C1.30966 15.0437 1.41895 15.0886 1.49964 15.169L4.83058 18.4999C4.87074 18.5397 4.90262 18.5871 4.92438 18.6393C4.94613 18.6916 4.95733 18.7476 4.95733 18.8041C4.95733 18.8607 4.94613 18.9167 4.92438 18.9689C4.90262 19.0211 4.87074 19.0685 4.83058 19.1084C4.79078 19.1479 4.74351 19.1791 4.69152 19.2002C4.63953 19.2213 4.58387 19.2319 4.52777 19.2312Z" fill="black"/>
<path d="M2.74825 17.4549C2.63483 17.4539 2.52624 17.4088 2.44544 17.3292C2.36589 17.2485 2.32129 17.1397 2.32129 17.0264C2.32129 16.9131 2.36589 16.8043 2.44544 16.7236L14.4122 4.75392C14.4929 4.67361 14.6022 4.62864 14.7161 4.62891C14.8299 4.62918 14.939 4.67466 15.0193 4.75535C15.0996 4.83604 15.1446 4.94532 15.1443 5.05917C15.144 5.17301 15.0986 5.28209 15.0179 5.3624L3.05106 17.3292C3.01141 17.3691 2.96422 17.4008 2.91225 17.4224C2.86027 17.4439 2.80453 17.455 2.74825 17.4549Z" fill="black"/>
</svg>
