<svg width="34" height="35" viewBox="0 0 34 35" fill="none" xmlns="http://www.w3.org/2000/svg">
<path d="M28 19L28 5C28 2.79086 26.2091 1 24 1L6 0.999999L6 11.4762L6 23L24 23C26.2091 23 28 21.2091 28 19Z" fill="white" stroke="black"/>
<path d="M23 25L23 11C23 8.79086 21.2091 7 19 7L1 7L1 17.4762L1 29L19 29C21.2091 29 23 27.2091 23 25Z" fill="white" stroke="black"/>
<path d="M33 30L33 16C33 13.7909 31.2091 12 29 12L11 12L11 22.4762L11 34L29 34C31.2091 34 33 32.2091 33 30Z" fill="white" stroke="black"/>
</svg>
