<svg width="20" height="19" viewBox="0 0 20 19" fill="none" xmlns="http://www.w3.org/2000/svg">
<path d="M18.8419 0.135641C18.7634 0.0529505 18.6557 0.00434569 18.5418 0.000277508C18.4279 -0.00379067 18.3169 0.0370028 18.2328 0.113886L5.52796 11.5569C5.48108 11.5992 5.44397 11.6511 5.41918 11.7092C4.28793 11.9702 3.33072 12.9275 2.67808 14.5156C2.02544 16.1037 0.785414 16.9303 0.480847 16.9956C0.373345 16.9842 0.265462 17.0133 0.178213 17.0771C0.0909636 17.1409 0.0305982 17.235 0.00887588 17.3409C-0.0128464 17.4467 0.00563017 17.5569 0.0607063 17.65C0.115782 17.743 0.203514 17.8122 0.306809 17.844C1.307 18.2329 2.36676 18.4463 3.4395 18.4749C4.27231 18.4931 5.09597 18.2984 5.83252 17.9093C6.94202 17.3002 7.74694 16.1907 8.18204 14.6461C8.26591 14.6251 8.34165 14.5797 8.39959 14.5156L19.8861 1.7455C19.963 1.66135 20.0038 1.55039 19.9997 1.43648C19.9957 1.32257 19.9471 1.21481 19.8644 1.13636L18.8419 0.135641ZM5.44094 17.1261C4.74478 17.5177 3.52652 17.8223 1.63385 17.3437C2.45496 16.6825 3.09182 15.8208 3.48301 14.8419C4.07039 13.4278 4.89707 12.6011 5.83252 12.5141L7.44238 14.124C7.07255 15.5815 6.39815 16.5823 5.44094 17.1261ZM8.09502 13.5583L6.44166 11.905L18.5156 1.04934L18.9507 1.48444L8.09502 13.5583Z" fill="black"/>
</svg>
