<svg width="24" height="24" viewBox="0 0 24 24" fill="none" xmlns="http://www.w3.org/2000/svg">
<path d="M12.0002 2.31916C15.1533 2.31916 15.5267 2.3312 16.7721 2.38802C17.9234 2.44056 18.5486 2.63289 18.9648 2.79461C19.4777 2.98391 19.9417 3.28576 20.3226 3.67797C20.7148 4.05888 21.0166 4.52284 21.2059 5.03575C21.3677 5.45186 21.56 6.07712 21.6125 7.22847C21.6693 8.4737 21.6814 8.84715 21.6814 12.0003C21.6814 15.1535 21.6693 15.5269 21.6125 16.7722C21.56 17.9236 21.3676 18.5488 21.2059 18.9649C21.0095 19.4742 20.7086 19.9367 20.3226 20.3227C19.9366 20.7087 19.4741 21.0096 18.9648 21.2061C18.5487 21.3678 17.9234 21.5602 16.7721 21.6127C15.5271 21.6695 15.1536 21.6815 12.0002 21.6815C8.84678 21.6815 8.47347 21.6695 7.22833 21.6127C6.07698 21.5601 5.45177 21.3677 5.03561 21.2061C4.5227 21.0168 4.05873 20.7149 3.67783 20.3227C3.28563 19.9418 2.98378 19.4778 2.79447 18.9649C2.63275 18.5488 2.44037 17.9236 2.38787 16.7722C2.33106 15.527 2.31902 15.1535 2.31902 12.0003C2.31902 8.84715 2.33106 8.4738 2.38787 7.22847C2.44042 6.07712 2.63275 5.45191 2.79447 5.03575C2.9838 4.52281 3.28568 4.05883 3.67792 3.67792C4.05883 3.28572 4.52279 2.98387 5.0357 2.79456C5.45181 2.63284 6.07708 2.44047 7.22842 2.38797C8.47366 2.33116 8.84711 2.31911 12.0003 2.31911L12.0002 2.31916ZM12.0003 0.191406C8.7932 0.191406 8.39092 0.205 7.13158 0.262469C5.87462 0.319844 5.01625 0.519437 4.26512 0.811375C3.47718 1.10789 2.76341 1.57271 2.17356 2.17342C1.57271 2.76323 1.10776 3.47701 0.811141 4.26498C0.519437 5.01616 0.319844 5.87453 0.262703 7.13148C0.205 8.39083 0.191406 8.79311 0.191406 12.0002C0.191406 15.2073 0.205 15.6096 0.262703 16.8689C0.320078 18.1259 0.519672 18.9842 0.811609 19.7354C1.10812 20.5233 1.57294 21.2371 2.17366 21.8269C2.7635 22.4276 3.47728 22.8925 4.26522 23.189C5.01639 23.4809 5.87477 23.6805 7.13167 23.7379C8.3912 23.7954 8.79334 23.809 12.0004 23.809C15.2074 23.809 15.6098 23.7954 16.8691 23.7379C18.1261 23.6805 18.9844 23.4809 19.7356 23.189C20.52 22.8856 21.2324 22.4217 21.8271 21.8269C22.4219 21.2322 22.8858 20.5198 23.1892 19.7354C23.4811 18.9842 23.6807 18.1258 23.7381 16.8689C23.7955 15.6094 23.8091 15.2072 23.8091 12.0002C23.8091 8.79315 23.7955 8.39083 23.7381 7.13148C23.6807 5.87453 23.4811 5.01616 23.1892 4.26503C22.8927 3.47709 22.4278 2.76331 21.8271 2.17347C21.2373 1.57264 20.5234 1.10772 19.7354 0.81114C18.9842 0.519437 18.1259 0.319844 16.8689 0.262703C15.6096 0.205 15.2073 0.191406 12.0002 0.191406H12.0003Z" fill="black"/>
<path d="M12.0005 5.93652C10.8012 5.93652 9.62876 6.29217 8.63154 6.95849C7.63432 7.62481 6.85709 8.57187 6.39812 9.67992C5.93915 10.788 5.81906 12.0072 6.05304 13.1835C6.28702 14.3598 6.86456 15.4403 7.71263 16.2884C8.56069 17.1365 9.64119 17.714 10.8175 17.948C11.9938 18.182 13.213 18.0619 14.3211 17.6029C15.4291 17.1439 16.3762 16.3667 17.0425 15.3695C17.7088 14.3723 18.0645 13.1998 18.0645 12.0005C18.0645 10.3922 17.4256 8.84984 16.2884 7.71262C15.1512 6.57541 13.6088 5.93652 12.0005 5.93652ZM12.0005 15.9367C11.222 15.9367 10.461 15.7059 9.81367 15.2733C9.16636 14.8408 8.66185 14.2261 8.36394 13.5068C8.06602 12.7876 7.98808 11.9961 8.13996 11.2326C8.29185 10.469 8.66674 9.76764 9.21724 9.21715C9.76773 8.66667 10.4691 8.29178 11.2327 8.1399C11.9962 7.98803 12.7876 8.06598 13.5069 8.36391C14.2261 8.66183 14.8409 9.16635 15.2734 9.81366C15.7059 10.461 15.9368 11.222 15.9368 12.0005C15.9368 13.0445 15.5221 14.0457 14.7839 14.7838C14.0457 15.522 13.0445 15.9367 12.0005 15.9367Z" fill="black"/>
<path d="M18.3038 7.11336C19.0864 7.11336 19.7208 6.47893 19.7208 5.69633C19.7208 4.91372 19.0864 4.2793 18.3038 4.2793C17.5211 4.2793 16.8867 4.91372 16.8867 5.69633C16.8867 6.47893 17.5211 7.11336 18.3038 7.11336Z" fill="black"/>
</svg>
