<?xml version="1.0" standalone="no"?>
<!DOCTYPE svg PUBLIC "-//W3C//DTD SVG 20010904//EN"
 "http://www.w3.org/TR/2001/REC-SVG-20010904/DTD/svg10.dtd">
<svg version="1.0" xmlns="http://www.w3.org/2000/svg"
 width="522.000000pt" height="522.000000pt" viewBox="0 0 522.000000 522.000000"
 preserveAspectRatio="xMidYMid meet">
<metadata>
Created by potrace 1.11, written by Peter Selinger 2001-2013
</metadata>
<g transform="translate(0.000000,522.000000) scale(0.100000,-0.100000)"
fill="#000000" stroke="none">
<path d="M1446 5208 c-137 -13 -267 -109 -318 -236 l-23 -57 0 -2110 0 -2110
1040 -347 c572 -191 1055 -347 1073 -347 32 -1 85 20 108 43 44 44 42 -51 40
2056 l-1 1985 -979 327 c-1110 371 -1041 341 -1041 447 0 68 21 105 74 132 29
15 141 17 1261 17 l1230 0 0 -81 c1 -45 1 -1016 1 -2158 l0 -2075 102 1 102 0
1 2254 c1 1903 -1 2254 -13 2258 -21 8 -2577 9 -2657 1z m1426 -3042 c38 -25
68 -92 68 -153 0 -102 -68 -175 -164 -175 -92 0 -156 63 -161 161 -6 105 46
178 140 193 32 6 88 -7 117 -26z"/>
</g>
</svg>
