<svg xmlns="http://www.w3.org/2000/svg" viewBox="0 0 273.2 125.03" fill="black" stroke="white" class="fill-primary">
  <title>ATW_LOGO_stacked</title><path d="M94.61,22.1a9.16,9.16,0,0,1-3.48-3.91,12.82,12.82,0,0,1-1.19-5.6A12.22,12.22,0,0,1,91.19,7a9.75,9.75,0,0,1,3.6-3.93,10.31,10.31,0,0,1,5.51-1.45,8.23,8.23,0,0,1,3.84.9A6.74,6.74,0,0,1,106.86,5V2.19h4.82V23h-4.82V20.18A6.56,6.56,0,0,1,104,22.61a8.82,8.82,0,0,1-3.86.92A10.33,10.33,0,0,1,94.61,22.1Zm10.85-4.78A7.11,7.11,0,0,0,107,12.59a7.11,7.11,0,0,0-1.58-4.73A5.68,5.68,0,0,0,100.88,6a5.61,5.61,0,0,0-4.44,1.86,6.9,6.9,0,0,0-1.63,4.75,6.9,6.9,0,0,0,1.63,4.75,5.61,5.61,0,0,0,4.44,1.86A5.68,5.68,0,0,0,105.46,17.32Z"/><path d="M102.37,62.7V67a21,21,0,0,1-3.62.27A8.18,8.18,0,0,1,94,65.89c-1.33-.9-2-2.89-2-6V50.25H88.49V46.19H92v-6.3h4.87v6.3h4.77v4.06H96.88v8.57a7.79,7.79,0,0,0,.33,2.61,2,2,0,0,0,1,1.16,4.19,4.19,0,0,0,1.72.29A14,14,0,0,0,102.37,62.7Z"/><path d="M124.51,47.75q1.92,2.1,1.92,6.16V67h-4.87V56.14a8.79,8.79,0,0,0-1-4.86A4,4,0,0,0,117,49.8a4.57,4.57,0,0,0-3.66,1.5,6.34,6.34,0,0,0-1.29,4.26V67h-4.87V35.74h4.87V49.09a6.63,6.63,0,0,1,2.72-2.55,8.83,8.83,0,0,1,4.06-.89A7.3,7.3,0,0,1,124.51,47.75Z"/><path d="M135.44,66.1a9.69,9.69,0,0,1-3.82-3.93,12.45,12.45,0,0,1,0-11.16,9.57,9.57,0,0,1,3.82-3.93,12.66,12.66,0,0,1,11.69,0A9.57,9.57,0,0,1,151,51a12.54,12.54,0,0,1,0,11.16,9.69,9.69,0,0,1-3.82,3.93,12.74,12.74,0,0,1-11.69,0Zm10.33-4.74a6.89,6.89,0,0,0,1.63-4.77,6.9,6.9,0,0,0-1.63-4.78,6.41,6.41,0,0,0-9,0,6.9,6.9,0,0,0-1.63,4.78,6.89,6.89,0,0,0,1.63,4.77,6.41,6.41,0,0,0,9,0Z"/><path d="M158.23,65.43c-1.39-1.4-2.09-3.46-2.09-6.16V46.19H161V58.06a6.7,6.7,0,0,0,1,4,3.77,3.77,0,0,0,3.26,1.34,4.65,4.65,0,0,0,3.84-1.49,6.14,6.14,0,0,0,1.21-4V46.19h4.86V67h-4.86v-2.9c-1.28,2.29-3.43,3.43-6.43,3.43A7.61,7.61,0,0,1,158.23,65.43Z"/><path d="M183.94,66.63a7.43,7.43,0,0,1-3.17-2.48,5.89,5.89,0,0,1-1.14-3.54h4.86a2.57,2.57,0,0,0,1.19,2.18,5.05,5.05,0,0,0,3,.85,3.28,3.28,0,0,0,2.19-.67,2.18,2.18,0,0,0,.8-1.78,2,2,0,0,0-.55-1.5,5,5,0,0,0-2.17-1l-4.15-1.12a6.29,6.29,0,0,1-3.37-2.14,5.81,5.81,0,0,1-1.18-3.7,5.25,5.25,0,0,1,1-3.15,6.71,6.71,0,0,1,2.86-2.19,10.39,10.39,0,0,1,4.11-.78,9.4,9.4,0,0,1,6,1.74,5.72,5.72,0,0,1,2.19,4.73h-4.78a2.42,2.42,0,0,0-1-2,4.26,4.26,0,0,0-2.65-.73A3.61,3.61,0,0,0,186,50a1.8,1.8,0,0,0-.85,1.54,1.91,1.91,0,0,0,.6,1.43,4.89,4.89,0,0,0,2,1l4.15,1.21a6.81,6.81,0,0,1,3.53,2.18,6.17,6.17,0,0,1-.92,8.51,9.57,9.57,0,0,1-6,1.71A11,11,0,0,1,183.94,66.63Z"/><path d="M205.24,66.1a9.22,9.22,0,0,1-3.48-3.91,12.82,12.82,0,0,1-1.18-5.6A12.06,12.06,0,0,1,201.83,51a9.65,9.65,0,0,1,3.59-3.93,10.31,10.31,0,0,1,5.51-1.45,8.35,8.35,0,0,1,3.84.89A6.83,6.83,0,0,1,217.49,49V46.19h4.83V67h-4.83V64.18a6.56,6.56,0,0,1-2.83,2.43,8.81,8.81,0,0,1-3.86.91A10.35,10.35,0,0,1,205.24,66.1Zm10.85-4.78a7.87,7.87,0,0,0,0-9.46,6.39,6.39,0,0,0-9,0,6.93,6.93,0,0,0-1.63,4.76,6.9,6.9,0,0,0,1.63,4.75,5.6,5.6,0,0,0,4.44,1.85A5.66,5.66,0,0,0,216.09,61.32Z"/><path d="M228.16,67V46.19H233v2.9a6.63,6.63,0,0,1,2.72-2.55,8.86,8.86,0,0,1,4.06-.89,7.3,7.3,0,0,1,5.67,2.1q1.92,2.1,1.92,6.16V67h-4.86V56.14a8.78,8.78,0,0,0-1-4.86A4,4,0,0,0,238,49.8a4.59,4.59,0,0,0-3.66,1.5A6.34,6.34,0,0,0,233,55.56V67Z"/><path d="M268.38,35.74h4.82V67h-4.82V64.18a6.56,6.56,0,0,1-2.83,2.43,8.81,8.81,0,0,1-3.86.91,10.33,10.33,0,0,1-5.56-1.42,9.22,9.22,0,0,1-3.48-3.91,12.82,12.82,0,0,1-1.19-5.6A12.19,12.19,0,0,1,252.71,51a9.75,9.75,0,0,1,3.6-3.93,10.31,10.31,0,0,1,5.51-1.45,8.35,8.35,0,0,1,3.84.89A6.83,6.83,0,0,1,268.38,49ZM267,61.32a7.87,7.87,0,0,0,0-9.46,6.39,6.39,0,0,0-9,0,6.93,6.93,0,0,0-1.63,4.76A6.9,6.9,0,0,0,258,61.34a5.6,5.6,0,0,0,4.44,1.85A5.67,5.67,0,0,0,267,61.32Z"/><path d="M104,106.21H99.92l-7.67-20.8H97.6l4.33,13.75,4.51-13.75h5.27l4.51,13.75,4.33-13.75h5.35l-7.68,20.8h-4.1l-5.05-14.82Z"/><path d="M132.29,105.32a9.57,9.57,0,0,1-3.82-3.93,12.45,12.45,0,0,1,0-11.16,9.69,9.69,0,0,1,3.82-3.93,12.74,12.74,0,0,1,11.69,0,9.69,9.69,0,0,1,3.82,3.93,12.45,12.45,0,0,1,0,11.16,9.57,9.57,0,0,1-3.82,3.93,12.66,12.66,0,0,1-11.69,0Zm10.33-4.73a7.81,7.81,0,0,0,0-9.55,6.41,6.41,0,0,0-9,0,7.81,7.81,0,0,0,0,9.55,6.41,6.41,0,0,0,9,0Z"/><path d="M153.21,106.21V85.41h4.87v4a5.27,5.27,0,0,1,2.1-3.19,5.84,5.84,0,0,1,3.43-1.1,8.09,8.09,0,0,1,1.92.18v4.47a16.68,16.68,0,0,0-1.92-.09,4.87,4.87,0,0,0-4.06,1.89A8.73,8.73,0,0,0,158.08,97v9.19Z"/><path d="M175.15,106.21h-4.86V75h4.86Z"/><path d="M196.55,75h4.82v31.24h-4.82V103.4a6.59,6.59,0,0,1-2.84,2.43,8.79,8.79,0,0,1-3.86.92,10.32,10.32,0,0,1-5.55-1.43,9.06,9.06,0,0,1-3.49-3.91,12.93,12.93,0,0,1-1.18-5.6,12.18,12.18,0,0,1,1.25-5.55,9.59,9.59,0,0,1,3.59-3.93A10.26,10.26,0,0,1,190,84.88a8.25,8.25,0,0,1,3.84.89,6.87,6.87,0,0,1,2.72,2.45Zm-1.41,25.57a7.83,7.83,0,0,0,0-9.46,5.64,5.64,0,0,0-4.57-1.87,5.57,5.57,0,0,0-4.44,1.85,7.75,7.75,0,0,0,0,9.51,6.37,6.37,0,0,0,9,0Z"/><path d="M210.15,105.86a7.57,7.57,0,0,1-3.17-2.48,5.93,5.93,0,0,1-1.13-3.55h4.86a2.59,2.59,0,0,0,1.18,2.19,5.17,5.17,0,0,0,3.06.85,3.37,3.37,0,0,0,2.19-.67,2.24,2.24,0,0,0,.8-1.79,2,2,0,0,0-.56-1.49,4.64,4.64,0,0,0-2.16-1l-4.15-1.12a6.34,6.34,0,0,1-3.37-2.14A5.85,5.85,0,0,1,206.51,91a5.21,5.21,0,0,1,1-3.14,6.71,6.71,0,0,1,2.86-2.19,10.37,10.37,0,0,1,4.1-.78,9.45,9.45,0,0,1,6,1.74,5.72,5.72,0,0,1,2.19,4.73h-4.78a2.42,2.42,0,0,0-1-2,4.26,4.26,0,0,0-2.65-.74,3.64,3.64,0,0,0-2.15.6,1.84,1.84,0,0,0-.84,1.54,1.89,1.89,0,0,0,.6,1.43,4.66,4.66,0,0,0,2,1l4.16,1.21a6.86,6.86,0,0,1,3.52,2.19,6.15,6.15,0,0,1-.91,8.5,9.54,9.54,0,0,1-6,1.72A11.27,11.27,0,0,1,210.15,105.86Z"/><path d="M9.18,0A9.18,9.18,0,0,0,0,9.18v99.14l49.63,16.52a3.6,3.6,0,0,0,4.74-3.42V27.05L8,11.59A3.37,3.37,0,0,1,5.68,7.77a3.37,3.37,0,0,1,3.41-2.9H67.5v103.5h4.87V0ZM37.29,73.55a4.19,4.19,0,0,1,5.83,0,5.13,5.13,0,0,1,0,6.27,4.19,4.19,0,0,1-5.83,0,5.13,5.13,0,0,1,0-6.27Z"/>
</svg>
