<svg
   viewBox="25 0 100 100"
   class="fill-primary"
   width="100"
   height="100">
  <path
     class="cls-1"
     d="M 32.633176,0.4515684 A 7.2336977,7.2761732 0 0 0 25.399478,7.7277418 V 86.307243 l 39.107671,13.09394 a 2.8367443,2.8534014 0 0 0 3.735046,-2.710731 V 21.891708 L 31.703353,9.6379353 A 2.6555077,2.6711007 0 0 1 29.875229,6.6101596 2.6555077,2.6711007 0 0 1 32.562257,4.3115861 H 78.588431 V 86.346872 h 3.837485 V 0.4515684 Z M 54.783419,58.748141 a 3.3016551,3.321042 0 0 1 4.59395,0 4.0423605,4.0660967 0 0 1 0,4.969674 3.3016551,3.321042 0 0 1 -4.59395,0 4.0423605,4.0660967 0 0 1 0,-4.969674 z" />
</svg>
